<?xml version="1.0" encoding="utf-8"?>
<!-- Generator: Adobe Illustrator 24.1.2, SVG Export Plug-In . SVG Version: 6.00 Build 0)  -->
<svg version="1.1" id="Layer_1" xmlns="http://www.w3.org/2000/svg" xmlns:xlink="http://www.w3.org/1999/xlink" x="0px" y="0px"
	 viewBox="0 0 84.8 19.8" style="enable-background:new 0 0 84.8 19.8;" xml:space="preserve">
<style type="text/css">
	.st0{fill:#4B05AF;}
	.st1{fill:#58F808;}
</style>
<g>
	<g>
		<path class="st0" d="M11.7,4h2.6v9.2h-2.6V4z"/>
		<g>
			<path class="st0" d="M58.2,6.1c-0.4-0.7-1-1.3-1.7-1.7c-0.8-0.4-1.6-0.6-2.6-0.6s-1.8,0.2-2.6,0.6c-0.7,0.4-1.3,1-1.7,1.7
				C49.2,6.8,49,7.7,49,8.6s0.2,1.7,0.6,2.4c0.4,0.7,1,1.3,1.7,1.7c0.7,0.4,1.6,0.6,2.6,0.6s1.8-0.2,2.6-0.6c0.8-0.4,1.3-1,1.7-1.7
				c0.4-0.7,0.6-1.6,0.6-2.5S58.6,6.8,58.2,6.1z M55.6,10.4c-0.4,0.5-1,0.7-1.7,0.7c-0.7,0-1.3-0.2-1.7-0.7
				c-0.4-0.5-0.6-1.1-0.6-1.8c0-0.8,0.2-1.4,0.6-1.8c0.4-0.5,1-0.7,1.7-0.7c0.7,0,1.3,0.2,1.7,0.7c0.4,0.5,0.6,1.1,0.6,1.8
				C56.2,9.3,56,9.9,55.6,10.4z"/>
		</g>
		<g>
			<path class="st0" d="M39.9,6.1c-0.4-0.7-1-1.3-1.7-1.7c-0.8-0.4-1.6-0.6-2.6-0.6c-1,0-1.8,0.2-2.6,0.6c-0.7,0.4-1.3,1-1.7,1.7
				c-0.4,0.7-0.6,1.6-0.6,2.5s0.2,1.7,0.6,2.4c0.4,0.7,1,1.3,1.7,1.7c0.7,0.4,1.6,0.6,2.6,0.6c1,0,1.8-0.2,2.6-0.6
				c0.8-0.4,1.3-1,1.7-1.7c0.4-0.7,0.6-1.6,0.6-2.5S40.3,6.8,39.9,6.1z M37.3,10.4c-0.4,0.5-1,0.7-1.7,0.7c-0.7,0-1.3-0.2-1.7-0.7
				c-0.4-0.5-0.6-1.1-0.6-1.8c0-0.8,0.2-1.4,0.6-1.8c0.4-0.5,1-0.7,1.7-0.7c0.7,0,1.3,0.2,1.7,0.7c0.4,0.5,0.6,1.1,0.6,1.8
				C37.9,9.3,37.7,9.9,37.3,10.4z"/>
		</g>
		<g>
			<path class="st0" d="M24.4,6.1c-0.4-0.7-1-1.3-1.7-1.7c-0.8-0.4-1.6-0.6-2.6-0.6c-1,0-1.8,0.2-2.6,0.6c-0.7,0.4-1.3,1-1.7,1.7
				c-0.4,0.7-0.6,1.6-0.6,2.5s0.2,1.7,0.6,2.4c0.4,0.7,1,1.3,1.7,1.7c0.7,0.4,1.6,0.6,2.6,0.6c1,0,1.8-0.2,2.6-0.6
				c0.8-0.4,1.3-1,1.7-1.7c0.4-0.7,0.6-1.6,0.6-2.5S24.8,6.8,24.4,6.1z M21.8,10.4c-0.4,0.5-1,0.7-1.7,0.7c-0.7,0-1.3-0.2-1.7-0.7
				c-0.4-0.5-0.6-1.1-0.6-1.8c0-0.8,0.2-1.4,0.6-1.8c0.4-0.5,1-0.7,1.7-0.7c0.7,0,1.3,0.2,1.7,0.7c0.4,0.5,0.6,1.1,0.6,1.8
				C22.4,9.3,22.2,9.9,21.8,10.4z"/>
		</g>
		<g>
			<path class="st0" d="M9.2,6.1c-0.4-0.7-1-1.3-1.7-1.7C6.7,3.9,5.9,3.7,4.9,3.7c-1,0-1.8,0.2-2.6,0.6C1.6,4.8,1,5.4,0.6,6.1
				C0.2,6.8,0,7.7,0,8.6s0.2,1.7,0.6,2.4c0.4,0.7,1,1.3,1.7,1.7c0.7,0.4,1.6,0.6,2.6,0.6c1,0,1.8-0.2,2.6-0.6c0.8-0.4,1.3-1,1.7-1.7
				c0.4-0.7,0.6-1.6,0.6-2.5S9.6,6.8,9.2,6.1z M6.6,10.4c-0.4,0.5-1,0.7-1.7,0.7c-0.7,0-1.3-0.2-1.7-0.7C2.8,9.9,2.6,9.3,2.6,8.6
				c0-0.8,0.2-1.4,0.6-1.8C3.6,6.2,4.2,6,4.9,6c0.7,0,1.3,0.2,1.7,0.7C7,7.2,7.2,7.8,7.2,8.6C7.2,9.3,7,9.9,6.6,10.4z"/>
		</g>
		<path class="st0" d="M74,4l-2.8,9.2h-2.8l-1.8-5.9l-1.8,5.9h-2.8L59.1,4h2.6l1.7,6.2L65.3,4h2.4l1.9,6.2L71.4,4H74z"/>
		<g>
			<rect x="7.3" y="0" class="st0" width="2.6" height="13.2"/>
		</g>
		<g>
			<path class="st0" d="M27.3,4h2.6v9.2h-2.6V4z"/>
			<g>
				<path class="st0" d="M20.3,19.1c-2.8,0-5.1-2.3-5.1-5.1h2.6c0,1.4,1.2,2.6,2.6,2.6c1.4,0,2.6-1.2,2.6-2.6V4h2.6V14
					C25.4,16.8,23.1,19.1,20.3,19.1z"/>
			</g>
		</g>
		<g>
			<path class="st0" d="M35.8,19.1c-2.8,0-5.1-2.3-5.1-5.1h2.6c0,1.4,1.2,2.6,2.6,2.6c1.4,0,2.6-1.2,2.6-2.6V4H41V14
				C41,16.8,38.7,19.1,35.8,19.1z"/>
		</g>
		<g>
			<path class="st0" d="M48,3.8c-0.6,0-1.2,0.2-1.6,0.5c-0.4,0.3-0.8,0.7-1,1.2v3.3c0-0.8,0.2-1.5,0.5-1.8c0.4-0.4,0.9-0.6,1.7-0.6
				c0.4,0,0.7,0,1.1,0.1V3.9C48.6,3.8,48.3,3.8,48,3.8z"/>
			<polygon class="st0" points="45.4,4 45.4,4 42.9,4 42.9,13.1 45.4,13.1 45.4,13.1 45.4,8.7 45.4,5.4 			"/>
		</g>
	</g>
	<g>
		<g>
			<path class="st1" d="M83.6,0.2L83.5,0l-0.2,0.1c-0.1,0-3.1,0.8-5.2,5.3c-0.5,1.1-0.8,2.2-0.9,3.2c-0.6,0.2-2.2,0.9-2.5,3.2
				l-0.1,0.9l0.7-0.6c0,0,0.8-0.7,1.7-0.9c0,0.2,0,0.3,0,0.3l0,0.3l0.2,0c0.3,0.1,0.8,0.2,1.5,0.4c-0.2,0.8-0.1,1.5-0.1,1.6l0.1,0.3
				l0.2-0.2c0,0,0.6-0.5,0.9-1.3c0.6,0.2,1.1,0.5,1.4,0.6l0.2,0.1l0.2-0.2c0,0,0.1-0.1,0.2-0.2c0.6,0.8,0.8,1.8,0.8,1.8l0.1,0.9
				l0.5-0.8c1.2-1.9,0.4-3.5,0-4c0.5-0.9,0.9-1.9,1.3-3.1C85.5,2.7,83.7,0.3,83.6,0.2z M84.1,3.5c-1.2,0-2.3-0.4-3.2-1.1
				c1-1,1.9-1.5,2.3-1.6C83.4,1.1,83.9,2.1,84.1,3.5z M77,9.3c0,0.4-0.1,0.8-0.1,1.1c-0.6,0.1-1.1,0.3-1.5,0.6
				C75.8,10,76.5,9.5,77,9.3z M79,13c0-0.3,0-0.7,0.1-1.1c0.1-0.4,0.4-0.7,0.6-0.9c0,0.3,0,0.7-0.1,1.1C79.4,12.4,79.2,12.8,79,13z
				 M83,13.6c-0.2-0.4-0.4-0.9-0.8-1.3c0.2-0.3,0.4-0.6,0.6-1C83.1,11.8,83.4,12.6,83,13.6z M83.8,7.4c-0.7,2.5-2.1,4.4-2.6,5
				c-0.4-0.2-0.8-0.3-1.2-0.5c0.2-0.8,0.1-1.6,0.1-1.6L80.1,10l-0.2,0.2c0,0-0.6,0.5-0.9,1.3c-0.4-0.1-0.9-0.3-1.3-0.4
				c0-0.7,0-3.1,1-5.5c0.6-1.2,1.2-2,1.8-2.7c0.5,0.4,1.1,0.8,1.7,1c0.6,0.2,1.3,0.3,2,0.3C84.2,5.1,84.1,6.2,83.8,7.4z"/>
			<path class="st1" d="M81.9,4.6c-1-0.4-2.2,0.2-2.5,1.2c-0.4,1,0.2,2.2,1.2,2.5c1,0.4,2.2-0.2,2.5-1.2C83.5,6.1,82.9,5,81.9,4.6z
				 M80,6.1L80,6.1L80,6.1c0.3-0.7,1-1.1,1.8-0.9c0,0,0,0,0,0c0.4,0.1,0.6,0.4,0.8,0.7C82.1,6.8,81,7.3,80,7.1
				C79.9,6.8,79.8,6.4,80,6.1z M81.4,7.9c-0.2,0-0.3,0-0.5-0.1l0,0c-0.1,0-0.2-0.1-0.3-0.1c0.8,0,1.6-0.4,2.1-1
				C82.6,7.3,82,7.8,81.4,7.9z"/>
		</g>
		<g>
			
				<rect x="74.6" y="14.8" transform="matrix(0.3248 -0.9458 0.9458 0.3248 37.4062 82.6474)" class="st1" width="3.9" height="0.7"/>
		</g>
		<g>
			
				<rect x="77.8" y="15.5" transform="matrix(0.3247 -0.9458 0.9458 0.3247 38.8048 86.129)" class="st1" width="3.9" height="0.7"/>
		</g>
		<g>
			
				<rect x="75.4" y="17.5" transform="matrix(0.3248 -0.9458 0.9458 0.3248 35.339 85.2255)" class="st1" width="3.9" height="0.7"/>
		</g>
	</g>
</g>
</svg>
