<?xml version="1.0" encoding="utf-8"?>
<!-- Generator: Adobe Illustrator 24.1.2, SVG Export Plug-In . SVG Version: 6.00 Build 0)  -->
<svg version="1.1" id="Layer_1" xmlns="http://www.w3.org/2000/svg" xmlns:xlink="http://www.w3.org/1999/xlink" x="0px" y="0px"
	 viewBox="0 0 19.1 37.3" style="enable-background:new 0 0 19.1 37.3;" xml:space="preserve">
<style type="text/css">
	.st0{fill:#58F808;}
</style>
<g>
	<g>
		<path class="st0" d="M16.9,0.3L16.6,0l-0.4,0.1c-0.2,0.1-5.8,1.6-9.8,10c-0.9,2.1-1.4,4.2-1.7,6c-1.2,0.4-4.2,1.7-4.7,6l-0.2,1.7
			l1.2-1.2c0,0,1.4-1.3,3.3-1.7c0,0.3,0,0.5,0,0.6l0,0.5L4.8,22c0.5,0.1,1.5,0.4,2.7,0.7c-0.4,1.6-0.1,2.9-0.1,3l0.1,0.6L8,25.9
			c0.1,0,1.1-1,1.7-2.4c1.2,0.5,2.1,0.9,2.6,1.1l0.4,0.2l0.3-0.4c0,0,0.2-0.2,0.4-0.5c1.2,1.4,1.5,3.4,1.5,3.4l0.3,1.7l0.9-1.5
			c2.2-3.7,0.7-6.5,0-7.6c0.9-1.6,1.8-3.6,2.4-5.8C20.5,5.1,17,0.5,16.9,0.3z M17.7,6.6c-2.2,0-4.3-0.7-6-2.1
			c1.9-1.9,3.6-2.8,4.4-3.1C16.5,2.2,17.4,3.9,17.7,6.6z M4.5,17.5c-0.1,0.8-0.1,1.5-0.2,2.1c-1.1,0.2-2,0.6-2.7,1.1
			C2.3,18.7,3.6,17.9,4.5,17.5z M8.2,24.4c0-0.5,0-1.3,0.3-2c0.3-0.7,0.7-1.4,1-1.8c0,0.5,0,1.3-0.3,2C9,23.4,8.6,24,8.2,24.4z
			 M15.8,25.5c-0.3-0.8-0.8-1.7-1.5-2.5c0.4-0.5,0.8-1.1,1.2-1.8C15.9,22.1,16.5,23.6,15.8,25.5z M17.3,13.9
			c-1.3,4.7-3.9,8.3-4.8,9.4c-0.7-0.3-1.6-0.7-2.3-0.9c0.4-1.6,0.1-3,0.1-3l-0.1-0.6l-0.4,0.4c-0.1,0-1.1,1-1.8,2.5
			c-0.8-0.2-1.7-0.5-2.4-0.7c0-1.4,0.1-5.8,1.9-10.3c1-2.2,2.2-3.8,3.3-5.1c1,0.8,2.1,1.4,3.3,1.8c1.2,0.4,2.4,0.6,3.7,0.6
			C17.9,9.6,17.8,11.6,17.3,13.9z"/>
		<path class="st0" d="M13.7,8.7C11.7,8,9.6,9.1,9,11c-0.7,1.9,0.4,4,2.3,4.7c1.9,0.7,4-0.4,4.7-2.3C16.6,11.5,15.6,9.4,13.7,8.7z
			 M10,11.4L10,11.4L10,11.4c0.5-1.4,1.9-2.1,3.3-1.6c0,0,0,0,0,0c0.7,0.2,1.2,0.7,1.5,1.4c-0.9,1.7-2.8,2.7-4.7,2.3
			C9.8,12.8,9.8,12,10,11.4z M12.6,14.8c-0.3,0-0.6,0-0.9-0.1l-0.1,0c-0.2-0.1-0.4-0.2-0.5-0.3c1.5,0,3-0.8,4-2
			C14.9,13.7,13.9,14.7,12.6,14.8z"/>
	</g>
	<g>
		<rect x="0" y="27.8" transform="matrix(0.3248 -0.9458 0.9458 0.3248 -24.4008 22.6733)" class="st0" width="7.4" height="1.3"/>
	</g>
	<g>
		
			<rect x="5.9" y="29.2" transform="matrix(0.3247 -0.9458 0.9458 0.3247 -21.7902 29.2107)" class="st0" width="7.4" height="1.3"/>
	</g>
	<g>
		
			<rect x="1.4" y="32.9" transform="matrix(0.3248 -0.9458 0.9458 0.3248 -28.2922 27.5167)" class="st0" width="7.4" height="1.3"/>
	</g>
</g>
</svg>
